<svg id="injuries" xmlns="http://www.w3.org/2000/svg" viewBox="0 0 108 108"><defs><style>.cls-1{opacity:0.5;}.cls-2{fill:#fff;}.cls-3{fill:#01577d;}</style></defs><g class="cls-1"><circle class="cls-2" cx="54" cy="54" r="51"/></g><circle class="cls-2" cx="54" cy="54" r="41.5"/><path class="cls-3" d="M54,13A41,41,0,1,1,13,54,41,41,0,0,1,54,13m0-1A42,42,0,1,0,96,54,42,42,0,0,0,54,12Z"/><path class="cls-3" d="M40,51.62H51.62V39.74h4.76V51.62H68v4.76H56.38V68.26H51.62V56.38H40Z"/><g class="cls-1"><path class="cls-3" d="M54,4A50,50,0,1,1,4,54,50.06,50.06,0,0,1,54,4m0-1a51,51,0,1,0,51,51A51,51,0,0,0,54,3Z"/></g></svg>